# xmcd
#
# Track frame offsets: 
#        150
#        19550
#        43185
#        62473
#        80958
#        95646
#        103316
#        124828
#        135706
#        153134
#        175386
#        201149
#        216738
#
# Disc length: 3114 seconds
#
# Revision: 1
# Processed by: cddbd v1.5.2PL0 Copyright (c) Steve Scherf et al.
# Submitted via: ExactAudioCopy v1.0b3
#
DISCID=c00c280d
DTITLE=Grzegorz Kapołka Trio - Blues 4 You
DYEAR=2013
DGENRE=Blues
TTITLE0=Machine
TTITLE1=Mrs. Doc
TTITLE2=She and He
TTITLE3=Blues 4 You
TTITLE4=Mr. Atkins
TTITLE5=Bea
TTITLE6=Mio Alang
TTITLE7=Cry Of Mississipi
TTITLE8=Dissonance
TTITLE9=Our Point In Space
TTITLE10=A Song
TTITLE11=Sober Singer
TTITLE12=Superfusion
EXTD=
EXTT0=
EXTT1=
EXTT2=
EXTT3=
EXTT4=
EXTT5=
EXTT6=
EXTT7=
EXTT8=
EXTT9=
EXTT10=
EXTT11=
EXTT12=
PLAYORDER=
